<svg width="40" height="40" viewBox="0 0 40 40" fill="none" xmlns="http://www.w3.org/2000/svg">
<mask id="mask0_1932_10696" style="mask-type:alpha" maskUnits="userSpaceOnUse" x="0" y="0" width="40" height="40">
<circle cx="20" cy="20" r="20" fill="#D9D9D9"/>
</mask>
<g mask="url(#mask0_1932_10696)">
<path d="M38 31H3V34H37.9981L38 31Z" fill="url(#paint0_linear_1932_10696)"/>
<path d="M31 37H9V40H30.9988L31 37Z" fill="url(#paint1_linear_1932_10696)"/>
<path d="M40 25H0V28H39.9978L40 25Z" fill="url(#paint2_linear_1932_10696)"/>
<path d="M40.4998 18.4607H40.2909C39.5174 7.92975 30.7245 -0.40625 20.0019 -0.40625C9.27929 -0.40625 0.481891 7.92965 -0.287109 18.4607H0.000842571C-0.287102 18.4607 0.000842571 21.4607 0.000842571 21.4607H40.5008V18.4607H40.4998ZM20.0009 2.59375C29.0712 2.59375 36.5239 9.58595 37.2899 18.4607H2.71189C3.47361 9.58575 10.9307 2.59375 20.0009 2.59375Z" fill="url(#paint3_linear_1932_10696)"/>
</g>
<defs>
<linearGradient id="paint0_linear_1932_10696" x1="18.2727" y1="-1.25" x2="18.2727" y2="34.75" gradientUnits="userSpaceOnUse">
<stop stop-color="#F8A787"/>
<stop offset="1" stop-color="#FE9393"/>
</linearGradient>
<linearGradient id="paint1_linear_1932_10696" x1="18.6" y1="4.75" x2="18.6" y2="40.75" gradientUnits="userSpaceOnUse">
<stop stop-color="#F8A787"/>
<stop offset="1" stop-color="#FE9393"/>
</linearGradient>
<linearGradient id="paint2_linear_1932_10696" x1="17.4545" y1="-7.25" x2="17.4545" y2="28.75" gradientUnits="userSpaceOnUse">
<stop stop-color="#F8A787"/>
<stop offset="1" stop-color="#FE9393"/>
</linearGradient>
<linearGradient id="paint3_linear_1932_10696" x1="17.5113" y1="-235.476" x2="17.5109" y2="26.9275" gradientUnits="userSpaceOnUse">
<stop stop-color="#F8A787"/>
<stop offset="1" stop-color="#FE9393"/>
</linearGradient>
</defs>
</svg>
